<svg width="72" height="69" viewBox="0 0 72 69" fill="none" xmlns="http://www.w3.org/2000/svg">
<path d="M20.8636 26.1666C20.8636 25.2826 21.2148 24.4347 21.8399 23.8096C22.4651 23.1845 23.3129 22.8333 24.197 22.8333H47.5303C48.4144 22.8333 49.2622 23.1845 49.8873 23.8096C50.5124 24.4347 50.8636 25.2826 50.8636 26.1666V42.8333C50.8636 43.7174 50.5124 44.5652 49.8873 45.1903C49.2622 45.8155 48.4144 46.1666 47.5303 46.1666H24.197C23.3129 46.1666 22.4651 45.8155 21.8399 45.1903C21.2148 44.5652 20.8636 43.7174 20.8636 42.8333V26.1666Z" stroke="#64CCC5" stroke-width="3.39394" stroke-linecap="round" stroke-linejoin="round"/>
<path d="M20.8636 26.1666L35.8636 36.1666L50.8636 26.1666" stroke="#64CCC5" stroke-width="3.39394" stroke-linecap="round" stroke-linejoin="round"/>
</svg>
