<svg width="71" height="71" viewBox="0 0 71 71" fill="none" xmlns="http://www.w3.org/2000/svg">
<path d="M50.4825 42.8892C50.2151 44.9218 49.2169 46.7875 47.6743 48.1379C46.1318 49.4883 44.1505 50.231 42.1004 50.2273C30.1902 50.2273 20.5 40.5372 20.5 28.627C20.4963 26.5769 21.2391 24.5955 22.5894 23.053C23.9398 21.5105 25.8056 20.5123 27.8381 20.2448C28.3521 20.182 28.8726 20.2872 29.3219 20.5446C29.7713 20.8019 30.1253 21.1977 30.3312 21.6728L33.4992 28.7455V28.7635C33.6569 29.1271 33.722 29.5242 33.6887 29.9192C33.6555 30.3142 33.5249 30.6948 33.3087 31.027C33.2817 31.0675 33.2532 31.105 33.2232 31.1425L30.1002 34.8446C31.2237 37.1276 33.6117 39.4946 35.9248 40.6212L39.5758 37.5146C39.6117 37.4845 39.6493 37.4564 39.6883 37.4306C40.0203 37.2092 40.4022 37.0741 40.7995 37.0374C41.1968 37.0007 41.597 37.0637 41.9639 37.2206L41.9834 37.2296L49.05 40.3962C49.526 40.6013 49.9227 40.955 50.1809 41.4044C50.4391 41.8538 50.5449 42.3747 50.4825 42.8892Z" fill="#64CCC5"/>
</svg>
